<?xml version="1.0" standalone="no"?><!DOCTYPE svg PUBLIC "-//W3C//DTD SVG 1.1//EN" "http://www.w3.org/Graphics/SVG/1.1/DTD/svg11.dtd"><svg t="1609031554139" class="icon" viewBox="0 0 1259 1024" version="1.1" xmlns="http://www.w3.org/2000/svg" p-id="1809" width="29.5078125" height="24" xmlns:xlink="http://www.w3.org/1999/xlink"><defs><style type="text/css"></style></defs><path d="M0 687.913912a547.3402 547.3402 0 0 1 187.798924-354.976172c158.598002-159.070254 343.563413-231.639662 413.141891-161.825057a145.374942 145.374942 0 0 1 13.852728 147.736202c-7.870869 23.612606 12.357264 20.070715 23.612606 16.764951a99.960031 99.960031 0 0 0 6.690238-2.43997c128.13774-53.91545 239.982782-57.063797 280.911299 1.574174a132.309301 132.309301 0 0 1 0 125.933897c-9.287625 23.612606 2.833513 27.075788 20.621676 32.34927a191.65565 191.65565 0 0 1 152.616141 172.686856c0 158.598002-227.782936 358.281937-570.244427 358.281937C267.05857 1024.078709 0 896.964181 0 687.913912z m480.122982-236.126057c-208.4206 20.700384-366.546349 148.838125-353.008455 286.184781s193.544658 232.033205 401.965258 211.41153 366.46764-148.838125 352.929746-286.342198c-12.199846-124.674558-161.588932-214.087625-344.980169-214.087625a478.548809 478.548809 0 0 0-56.90638 2.597386z m-59.739892 438.486088a155.370945 155.370945 0 0 1-98.779401-221.328824 226.759723 226.759723 0 0 1 254.386472-111.451499 156.079324 156.079324 0 0 1 113.025673 218.259186 222.037202 222.037202 0 0 1-202.517448 124.753266 214.638586 214.638586 0 0 1-66.272713-10.232129z m-37.307917-156.31545a55.568332 55.568332 0 0 0 21.330054 83.667333 78.708686 78.708686 0 0 0 95.945888-31.483474 55.804458 55.804458 0 0 0-23.612606-83.82475 68.083013 68.083013 0 0 0-26.446119-5.194773 81.306072 81.306072 0 0 0-67.374634 36.599538z m138.369869-51.554189a21.093928 21.093928 0 0 0 9.287625 31.483475 30.066718 30.066718 0 0 0 35.96987-13.301768 21.093928 21.093928 0 0 0-10.153421-31.483474 24.793236 24.793236 0 0 0-9.208916-1.731592 30.932513 30.932513 0 0 0-26.052575 14.797233z m661.15296-213.14312a48.327133 48.327133 0 0 1-31.011223-60.920523A237.542813 237.542813 0 0 0 876.499923 102.321291a48.405842 48.405842 0 0 1-20.228132-94.450422 334.354497 334.354497 0 0 1 387.089316 430.379093 48.012298 48.012298 0 0 1-60.684397 31.011222z m-154.347733-57.142506a41.794312 41.794312 0 0 1-26.682244-52.498693 79.495772 79.495772 0 0 0-92.089163-102.321292 41.715603 41.715603 0 0 1-17.31591-81.463489 162.769562 162.769562 0 0 1 188.507302 209.60123 41.558186 41.558186 0 0 1-52.262568 26.839661z" p-id="1810" fill="#4093f6"></path></svg>