<svg version="1.1" xmlns="http://www.w3.org/2000/svg" viewBox="0 0 869 513.8333435058594" width="869" height="513.8333435058594" filter="invert(93%) hue-rotate(180deg)">
  <!-- svg-source:excalidraw -->
  
  <defs>
    <style>
      @font-face {
        font-family: "Virgil";
        src: url("https://excalidraw.com/Virgil.woff2");
      }
      @font-face {
        font-family: "Cascadia";
        src: url("https://excalidraw.com/Cascadia.woff2");
      }
    </style>
  </defs>
  <g stroke-linecap="round" transform="translate(330.1666259765625 10) rotate(0 97.66665649414062 38)"><path d="M19 0 M19 0 C81.13 1.23, 142.25 1.01, 176.33 0 M19 0 C68.88 -1.17, 119.38 -0.42, 176.33 0 M176.33 0 C188.65 -1.15, 197.23 4.56, 195.33 19 M176.33 0 C188.33 -1.86, 193.73 4.19, 195.33 19 M195.33 19 C195.74 32.87, 194.22 45.46, 195.33 57 M195.33 19 C195.87 27.58, 195.45 38.25, 195.33 57 M195.33 57 C196.45 67.83, 188.3 77.9, 176.33 76 M195.33 57 C195.72 67.59, 190.24 78.1, 176.33 76 M176.33 76 C135.49 77.74, 95.7 75.08, 19 76 M176.33 76 C141.44 76.32, 104.31 77.35, 19 76 M19 76 C6 75.63, -1.76 69.27, 0 57 M19 76 C7.48 77.9, -0.26 70.75, 0 57 M0 57 C-0.57 49.73, -1.22 39, 0 19 M0 57 C0.19 43.22, -0.04 29.63, 0 19 M0 19 C0.44 7.87, 6.2 -1.22, 19 0 M0 19 C-1.49 6.5, 4.46 -0.38, 19 0" stroke="#000000" stroke-width="4" fill="none"></path></g><g transform="translate(335.1666259765625 30.5) rotate(0 92.5 17.5)"><text x="92.5" y="24" font-family="Virgil, Segoe UI Emoji" font-size="28px" fill="#000000" text-anchor="middle" style="white-space: pre;" direction="ltr">应用用户</text></g><g stroke-linecap="round" transform="translate(253.49993896484375 131.33334350585938) rotate(0 176.00001525878906 46.333343505859375)"><path d="M23.17 0 M23.17 0 C137.4 1.46, 252.33 1.11, 328.83 0 M23.17 0 C91.33 0.79, 158.38 0.11, 328.83 0 M328.83 0 C342.79 0.85, 353.09 5.89, 352 23.17 M328.83 0 C343.24 -2.28, 351.63 8.65, 352 23.17 M352 23.17 C353.49 34.62, 351.34 49.66, 352 69.5 M352 23.17 C351.09 39.13, 350.97 53.86, 352 69.5 M352 69.5 C351.75 84.29, 345.63 91.71, 328.83 92.67 M352 69.5 C352.3 86.03, 344.38 93.92, 328.83 92.67 M328.83 92.67 C247.21 93.69, 163.26 93.34, 23.17 92.67 M328.83 92.67 C251.86 92.62, 176.04 92.38, 23.17 92.67 M23.17 92.67 C6.57 91.2, -1.96 86.29, 0 69.5 M23.17 92.67 C7.33 91.32, 0.25 86.34, 0 69.5 M0 69.5 C1.12 59.19, 1.22 50.34, 0 23.17 M0 69.5 C1.14 56.65, -0.48 43.04, 0 23.17 M0 23.17 C-1.69 8.78, 7.05 -0.61, 23.17 0 M0 23.17 C2.23 7.55, 5.43 -0.65, 23.17 0" stroke="#000000" stroke-width="4" fill="none"></path></g><g transform="translate(258.49993896484375 160.16668701171875) rotate(0 171 17.5)"><text x="171" y="24" font-family="Virgil, Segoe UI Emoji" font-size="28px" fill="#000000" text-anchor="middle" style="white-space: pre;" direction="ltr">应 用 软 件</text></g><g stroke-linecap="round"><g transform="translate(430.49993896484375 86.66668701171875) rotate(0 0.14809165977874272 23.260777761787182)"><path d="M0 0 C0.05 7.75, 0.25 38.77, 0.3 46.52 M0 0 C0.05 7.75, 0.25 38.77, 0.3 46.52" stroke="#000000" stroke-width="4" fill="none"></path></g><g transform="translate(430.49993896484375 86.66668701171875) rotate(0 0.14809165977874272 23.260777761787182)"><path d="M-7.8 24.71 C-5.55 30.77, -3.3 36.82, 0.3 46.52 M-7.8 24.71 C-4.71 33.03, -1.62 41.35, 0.3 46.52" stroke="#000000" stroke-width="4" fill="none"></path></g><g transform="translate(430.49993896484375 86.66668701171875) rotate(0 0.14809165977874272 23.260777761787182)"><path d="M8.11 24.61 C5.94 30.69, 3.77 36.78, 0.3 46.52 M8.11 24.61 C5.13 32.97, 2.15 41.32, 0.3 46.52" stroke="#000000" stroke-width="4" fill="none"></path></g></g><g stroke-linecap="round" transform="translate(157.1665802001953 223.33334350585938) rotate(0 273 46.5)"><path d="M23.25 0 M23.25 0 C173.12 -0.6, 324.34 -1.78, 522.75 0 M23.25 0 C163.65 -1.12, 302.96 -0.69, 522.75 0 M522.75 0 C536.92 -0.36, 547.31 9.32, 546 23.25 M522.75 0 C536.32 0.35, 546.52 6.97, 546 23.25 M546 23.25 C545.13 40.93, 545.76 57.19, 546 69.75 M546 23.25 C546.87 36.64, 546.53 52.53, 546 69.75 M546 69.75 C544.87 83.63, 536.54 92.53, 522.75 93 M546 69.75 C546.87 85.95, 538.85 91.44, 522.75 93 M522.75 93 C323.1 92.55, 124.43 93.05, 23.25 93 M522.75 93 C400.46 94.64, 277.68 94.78, 23.25 93 M23.25 93 C6.3 93.01, -1.66 84.77, 0 69.75 M23.25 93 C8.63 90.89, -2.25 84.26, 0 69.75 M0 69.75 C-0.88 50, -0.19 32.58, 0 23.25 M0 69.75 C-0.22 60.09, 0.08 49.13, 0 23.25 M0 23.25 C0.15 9.46, 7.86 0.83, 23.25 0 M0 23.25 C-2.26 6.15, 8.37 -1.25, 23.25 0" stroke="#000000" stroke-width="4" fill="none"></path></g><g transform="translate(162.1665802001953 252.33334350585938) rotate(0 268 17.5)"><text x="268" y="24" font-family="Virgil, Segoe UI Emoji" font-size="28px" fill="#000000" text-anchor="middle" style="white-space: pre;" direction="ltr">系  统  工  具</text></g><g stroke-linecap="round" transform="translate(79.49993896484375 317.16668701171875) rotate(0 352.5 46.5)"><path d="M23.25 0 M23.25 0 C276.91 0, 530.57 0, 681.75 0 M23.25 0 C271.45 0, 519.65 0, 681.75 0 M681.75 0 C697.25 0, 705 7.75, 705 23.25 M681.75 0 C697.25 0, 705 7.75, 705 23.25 M705 23.25 C705 38.86, 705 54.47, 705 69.75 M705 23.25 C705 37.23, 705 51.21, 705 69.75 M705 69.75 C705 85.25, 697.25 93, 681.75 93 M705 69.75 C705 85.25, 697.25 93, 681.75 93 M681.75 93 C479.56 93, 277.36 93, 23.25 93 M681.75 93 C460.93 93, 240.11 93, 23.25 93 M23.25 93 C7.75 93, 0 85.25, 0 69.75 M23.25 93 C7.75 93, 0 85.25, 0 69.75 M0 69.75 C0 54.38, 0 39.01, 0 23.25 M0 69.75 C0 59.5, 0 49.25, 0 23.25 M0 23.25 C0 7.75, 7.75 0, 23.25 0 M0 23.25 C0 7.75, 7.75 0, 23.25 0" stroke="#000000" stroke-width="4" fill="none"></path></g><g transform="translate(84.49993896484375 346.16668701171875) rotate(0 347.5 17.5)"><text x="347.5" y="24" font-family="Virgil, Segoe UI Emoji" font-size="28px" fill="#000000" text-anchor="middle" style="white-space: pre;" direction="ltr">操作系统 Operating System</text></g><g stroke-linecap="round" transform="translate(10 410.8333435058594) rotate(0 424.5 46.5)"><path d="M23.25 0 M23.25 0 C233.87 0, 444.49 0, 825.75 0 M23.25 0 C296.49 0, 569.74 0, 825.75 0 M825.75 0 C841.25 0, 849 7.75, 849 23.25 M825.75 0 C841.25 0, 849 7.75, 849 23.25 M849 23.25 C849 39.27, 849 55.3, 849 69.75 M849 23.25 C849 39.76, 849 56.27, 849 69.75 M849 69.75 C849 85.25, 841.25 93, 825.75 93 M849 69.75 C849 85.25, 841.25 93, 825.75 93 M825.75 93 C641.68 93, 457.6 93, 23.25 93 M825.75 93 C526.89 93, 228.03 93, 23.25 93 M23.25 93 C7.75 93, 0 85.25, 0 69.75 M23.25 93 C7.75 93, 0 85.25, 0 69.75 M0 69.75 C0 57.45, 0 45.16, 0 23.25 M0 69.75 C0 55.82, 0 41.89, 0 23.25 M0 23.25 C0 7.75, 7.75 0, 23.25 0 M0 23.25 C0 7.75, 7.75 0, 23.25 0" stroke="#000000" stroke-width="4" fill="none"></path></g><g transform="translate(15 439.8333435058594) rotate(0 419.5 17.5)"><text x="419.5" y="24" font-family="Virgil, Segoe UI Emoji" font-size="28px" fill="#000000" text-anchor="middle" style="white-space: pre;" direction="ltr">计     算     机     硬     件</text></g></svg>